<svg version="1.1" id="Layer_1" xmlns="http://www.w3.org/2000/svg" xmlns:xlink="http://www.w3.org/1999/xlink" x="0px" y="0px"
	 width="100%" viewBox="0 0 1024 1024" enable-background="new 0 0 1024 1024" xml:space="preserve">
<path fill="#000000" opacity="1.000000" stroke="none" 
	d="
M549.000000,194.969330 
	C619.496704,194.970993 689.493469,194.909744 759.489990,195.015259 
	C778.898865,195.044525 795.201538,202.217529 807.455688,217.607574 
	C816.322693,228.743805 820.069214,241.713989 820.105469,255.742172 
	C820.211060,296.573303 820.271912,337.405426 820.099854,378.236115 
	C819.951965,413.345612 794.109253,438.932892 758.851562,438.968536 
	C687.188354,439.041046 615.525085,438.968536 543.861816,438.961700 
	C536.213318,438.960968 536.214111,438.979309 536.224548,446.666138 
	C536.284058,490.496857 536.340637,534.327576 536.404907,578.158264 
	C536.414856,584.926697 536.431030,584.981750 543.373108,584.983093 
	C615.536316,584.997131 687.699585,584.940369 759.862732,585.017822 
	C788.818054,585.048889 812.641357,604.302979 818.714539,632.519897 
	C819.721497,637.198669 820.061340,642.100647 820.074097,646.901184 
	C820.181213,687.232300 820.181763,727.563904 820.131165,767.895264 
	C820.086487,803.493958 794.538635,829.009033 758.941956,829.010376 
	C602.282715,829.016174 445.623444,829.002136 288.964172,828.970520 
	C260.185028,828.964661 237.783066,812.463135 229.957474,785.579163 
	C228.269669,779.780823 227.791183,773.793701 227.788193,767.777893 
	C227.768021,727.279846 227.732101,686.781799 227.774353,646.283813 
	C227.811279,610.890503 253.502060,585.109131 289.040161,585.052307 
	C360.703247,584.937744 432.366608,584.991882 504.029877,584.973145 
	C511.700043,584.971130 511.717560,584.960754 511.714172,577.309143 
	C511.699554,544.310852 511.718994,511.312469 511.626312,478.314362 
	C511.595886,467.490234 511.247589,456.667267 511.076019,445.843231 
	C510.969635,439.131989 510.780060,438.926208 503.929291,438.925720 
	C432.599426,438.920898 361.269531,438.918488 289.939667,438.905609 
	C276.079041,438.903107 263.164032,435.660736 251.917053,427.239563 
	C235.683121,415.084442 227.953873,398.507904 227.849579,378.497864 
	C227.635010,337.334198 227.596039,296.168121 227.785385,255.004425 
	C227.923813,224.914047 246.651596,202.244873 276.115906,196.115524 
	C280.634918,195.175446 285.380585,195.020599 290.021790,195.017227 
	C376.181183,194.954681 462.340576,194.970261 549.000000,194.969330 
M286.708496,220.246582 
	C267.931274,220.588913 253.472214,234.146652 253.164001,252.853210 
	C252.464264,295.324615 252.335693,337.808228 253.094086,380.279480 
	C253.441803,399.753082 268.159515,413.780579 287.513672,413.785278 
	C444.803986,413.823547 602.094299,413.809814 759.384644,413.741425 
	C780.339111,413.732330 794.928650,399.006470 794.948425,378.159180 
	C794.987000,337.503723 794.965576,296.848206 794.914673,256.192780 
	C794.910706,253.044785 794.864319,249.811722 794.184448,246.763901 
	C790.587769,230.639236 777.162292,220.262878 760.032959,220.261124 
	C602.575989,220.245041 445.119049,220.248398 286.708496,220.246582 
M794.964722,748.500000 
	C794.962341,714.343628 794.874817,680.186890 795.009583,646.031006 
	C795.049805,635.823242 792.077148,626.975220 784.687927,619.891541 
	C777.314880,612.823425 768.225464,610.226440 758.161438,610.227722 
	C601.873169,610.247131 445.584930,610.232239 289.296661,610.226257 
	C288.296997,610.226196 287.296173,610.211121 286.297882,610.252136 
	C267.700775,611.015747 253.431915,624.502502 253.190399,642.974304 
	C252.628525,685.944092 252.215286,728.926331 253.198257,771.894165 
	C253.609039,789.849854 268.464325,803.741394 286.454346,803.744263 
	C444.908630,803.769836 603.362915,803.757385 761.817200,803.704529 
	C779.356201,803.698669 793.973267,789.592773 794.767273,771.987488 
	C795.104797,764.503967 794.913269,756.996582 794.964722,748.500000 
z"/>
</svg>